<svg width="512" height="512" viewBox="0 0 100 100" fill="none" xmlns="http://www.w3.org/2000/svg">
  <defs>
    <linearGradient id="shieldGradFav" x1="15%" y1="15%" x2="85%" y2="85%">
      <stop offset="0%" stop-color="#ffffff" />
      <stop offset="100%" stop-color="#888888" />
    </linearGradient>
  </defs>
  <rect width="100" height="100" rx="24" fill="#000000" stroke="rgba(255, 255, 255, 0.15)" stroke-width="2" />
  <path d="M50 22 C64 22 75 27 75 27 C75 27 75 58 50 78 C25 58 25 27 25 27 C25 27 36 22 50 22 Z" stroke="url(#shieldGradFav)" stroke-width="4.5" stroke-linecap="round" stroke-linejoin="round" />
  <path d="M38 42 C38 42 45 52 50 52 C55 52 62 42 62 42" stroke="#ffffff" stroke-width="3" stroke-linecap="round" stroke-linejoin="round" />
  <path d="M42 49 C42 49 47 57 50 57 C53 57 58 49 58 49" stroke="#888888" stroke-width="3.5" stroke-linecap="round" stroke-linejoin="round" />
  <circle cx="50" cy="35" r="4.5" fill="#ffffff" />
</svg>
